<svg viewBox="0 0 79.83 78.55" xmlns="http://www.w3.org/2000/svg"><ellipse cx="39.97" cy="39.11" fill="#fff" rx="37.65" ry="37.05"/><g fill="#010101"><path d="m13.07 51.8a5.63 5.63 0 0 1 -2.33-.44 5.16 5.16 0 0 1 -1.68-1.26l2.46-2.42a1.88 1.88 0 0 0 .58.47 1.67 1.67 0 0 0 .69.14 1.37 1.37 0 0 0 .94-.33 1.29 1.29 0 0 0 .38-1v-13.09h4v13a5 5 0 0 1 -.65 2.6 4.52 4.52 0 0 1 -1.77 1.7 5.29 5.29 0 0 1 -2.62.63z"/><path d="m26.93 46.53a7.18 7.18 0 0 1 -3.51-.85 6.54 6.54 0 0 1 -2.48-2.33 6.26 6.26 0 0 1 -.94-3.35 6.1 6.1 0 0 1 .9-3.28 6.66 6.66 0 0 1 2.46-2.31 7.2 7.2 0 0 1 3.53-.85 7.3 7.3 0 0 1 3.52.84 6.56 6.56 0 0 1 2.46 2.3 6.19 6.19 0 0 1 .9 3.3 6.26 6.26 0 0 1 -.9 3.32 6.63 6.63 0 0 1 -2.46 2.33 7.19 7.19 0 0 1 -3.48.88zm0-3.54a3 3 0 0 0 1.5-.37 2.45 2.45 0 0 0 1-1 3.18 3.18 0 0 0 .34-1.62 3.07 3.07 0 0 0 -.36-1.51 2.58 2.58 0 0 0 -1-1 3.15 3.15 0 0 0 -3 0 2.63 2.63 0 0 0 -1 1 3.39 3.39 0 0 0 0 3 2.56 2.56 0 0 0 1 1 2.88 2.88 0 0 0 1.52.51z"/><path d="m55.19 35.92a4.53 4.53 0 0 0 -1.79-1.71 5.4 5.4 0 0 0 -2.58-.6 5.52 5.52 0 0 0 -2.65.63 4.93 4.93 0 0 0 -1.37 1.06 4.19 4.19 0 0 0 -1.3-1.1 4.79 4.79 0 0 0 -2.37-.59 5.31 5.31 0 0 0 -2.51.58 4.37 4.37 0 0 0 -.88.59v-.91h-4v12.38h4v-7.25a2 2 0 0 1 .26-1.06 1.92 1.92 0 0 1 .74-.67 2.3 2.3 0 0 1 1.07-.27 2.07 2.07 0 0 1 1.44.52 1.86 1.86 0 0 1 .58 1.48v7.24h4v-7.24a1.92 1.92 0 0 1 .28-1.07 1.89 1.89 0 0 1 .73-.67 2.3 2.3 0 0 1 1.02-.26 2.07 2.07 0 0 1 1.44.52 1.86 1.86 0 0 1 .58 1.48v7.24h4v-7.66a5.12 5.12 0 0 0 -.69-2.66z"/><path d="m67.11 33.87v1a4.43 4.43 0 0 0 -1.18-.79 5.34 5.34 0 0 0 -2.29-.49 5.79 5.79 0 0 0 -3.1.84 6 6 0 0 0 -2.14 2.3 7.33 7.33 0 0 0 0 6.62 6 6 0 0 0 2.14 2.29 5.79 5.79 0 0 0 3.1.84 5.41 5.41 0 0 0 2.3-.48 4.43 4.43 0 0 0 1.17-.78v1h3.89v-12.35zm-2.67 9.13a2.85 2.85 0 0 1 -1.44-.39 2.75 2.75 0 0 1 -1-1 3.08 3.08 0 0 1 -.36-1.5 3 3 0 0 1 .36-1.58 2.77 2.77 0 0 1 1-1 2.84 2.84 0 0 1 1.47-.37 2.81 2.81 0 0 1 1.46.37 2.56 2.56 0 0 1 1 1 3.14 3.14 0 0 1 .35 1.53 3 3 0 0 1 -.77 2.1 2.69 2.69 0 0 1 -2.07.84z"/></g><ellipse cx="16.3" cy="29.44" fill="#b12d33" rx="2.74" ry="2.7"/><ellipse cx="42.05" cy="29.7" fill="#24806a" rx="2.74" ry="2.7"/><ellipse cx="33.47" cy="29.44" fill="#225980" rx="2.74" ry="2.7"/><ellipse cx="24.89" cy="29.44" fill="#e2c70c" rx="2.74" ry="2.7"/><path d="m39.91 0c-22.04 0-39.91 17.58-39.91 39.27s17.87 39.28 39.91 39.28 39.92-17.55 39.92-39.28-17.83-39.27-39.92-39.27zm0 74c-19.5 0-35.32-15.53-35.32-34.73s15.82-34.75 35.32-34.75 35.33 15.56 35.33 34.75-15.82 34.73-35.33 34.73z" fill="#010101"/></svg>