<svg id="Ebene_1" data-name="Ebene 1" xmlns="http://www.w3.org/2000/svg" viewBox="0 0 512 448"><defs><style>.cls-1{fill:#e2c70a;}</style></defs><path class="cls-1" d="M464,256H48a48,48,0,0,0,0,96H464a48,48,0,0,0,0-96Zm16,128H32a16,16,0,0,0-16,16v16a64,64,0,0,0,64,64H432a64,64,0,0,0,64-64V400A16,16,0,0,0,480,384ZM58.64,224H453.36c34.57,0,54.62-43.9,34.82-75.88C448,83.2,359.55,32.1,256,32,152.46,32.1,64,83.2,23.82,148.11,4,180.09,24.07,224,58.64,224ZM384,112a16,16,0,1,1-16,16A16,16,0,0,1,384,112ZM256,80a16,16,0,1,1-16,16A16,16,0,0,1,256,80ZM128,112a16,16,0,1,1-16,16A16,16,0,0,1,128,112Z" transform="translate(0 -32)"/></svg>