<svg viewBox="0 0 512 448" xmlns="http://www.w3.org/2000/svg"><path d="m464 256h-416a48 48 0 0 0 0 96h416a48 48 0 0 0 0-96zm16 128h-448a16 16 0 0 0 -16 16v16a64 64 0 0 0 64 64h352a64 64 0 0 0 64-64v-16a16 16 0 0 0 -16-16zm-421.36-160h394.72c34.57 0 54.62-43.9 34.82-75.88-40.18-64.92-128.63-116.02-232.18-116.12-103.54.1-192 51.2-232.18 116.11-19.82 31.98.25 75.89 34.82 75.89zm325.36-112a16 16 0 1 1 -16 16 16 16 0 0 1 16-16zm-128-32a16 16 0 1 1 -16 16 16 16 0 0 1 16-16zm-128 32a16 16 0 1 1 -16 16 16 16 0 0 1 16-16z" fill="#e2c70a" transform="translate(0 -32)"/></svg>