<svg id="Ebene_1" data-name="Ebene 1" xmlns="http://www.w3.org/2000/svg" viewBox="0 0 576 512"><defs><style>.cls-1{fill:#b12c33;}</style></defs><path class="cls-1" d="M571.31,193.94l-22.63-22.63a16,16,0,0,0-22.63,0l-11.31,11.31-28.9-28.9a63.73,63.73,0,0,0-16.35-61.61L424.24,46.86a160,160,0,0,0-226.28,0l90.51,45.25v18.75a64,64,0,0,0,18.75,45.25l49.14,49.14A63.73,63.73,0,0,0,418,221.6l28.9,28.9-11.31,11.31a16,16,0,0,0,0,22.63l22.63,22.63a16,16,0,0,0,22.63,0l90.51-90.51a16,16,0,0,0,0-22.62Zm-286.72-15.2a97,97,0,0,1-9.85-12L19.64,405a61.84,61.84,0,1,0,87.4,87.4L345.17,237.29a97.23,97.23,0,0,1-11.44-9.41l-49.14-49.14Z" transform="translate(0 0)"/></svg>