<svg viewBox="0 0 576 512" xmlns="http://www.w3.org/2000/svg"><path d="m571.31 193.94-22.63-22.63a16 16 0 0 0 -22.63 0l-11.31 11.31-28.9-28.9a63.73 63.73 0 0 0 -16.35-61.61l-45.25-45.25a160 160 0 0 0 -226.28 0l90.51 45.25v18.75a64 64 0 0 0 18.75 45.25l49.14 49.14a63.73 63.73 0 0 0 61.64 16.35l28.9 28.9-11.31 11.31a16 16 0 0 0 0 22.63l22.63 22.63a16 16 0 0 0 22.63 0l90.51-90.51a16 16 0 0 0 0-22.62zm-286.72-15.2a97 97 0 0 1 -9.85-12l-255.1 238.26a61.84 61.84 0 1 0 87.4 87.4l238.13-255.11a97.23 97.23 0 0 1 -11.44-9.41z" fill="#b12c33"/></svg>