<svg viewBox="0 0 639.99 512" xmlns="http://www.w3.org/2000/svg"><path d="m528 336a88 88 0 1 0 88 88 88 88 0 0 0 -88-88zm0 112a24 24 0 1 1 24-24 24 24 0 0 1 -24 24zm80-288h-64v-40.2a64.11 64.11 0 0 1 13.15-38.8c4.42-5.8 3.55-14.06-1.32-19.49l-21.63-24.21a16.28 16.28 0 0 0 -24.7.78 128.17 128.17 0 0 0 -29.5 81.72v40.2h-102.33l-56.09-130.86a47.91 47.91 0 0 0 -44.13-29.14h-133.45a48.05 48.05 0 0 0 -48 48v146.52a21.76 21.76 0 0 0 -28.89 1.48l-31.11 31.1a22 22 0 0 0 0 31.11l5.06 5.06a151.71 151.71 0 0 0 -11.91 28.73h-7.15a22 22 0 0 0 -22 22v44a22 22 0 0 0 22 22h7.14a152.46 152.46 0 0 0 11.91 28.73l-5.05 5.05a22 22 0 0 0 0 31.11l31.1 31.11a22 22 0 0 0 31.11 0l5.06-5.06a151.71 151.71 0 0 0 28.73 11.91v7.15a22 22 0 0 0 22 22h44a22 22 0 0 0 22-22v-7.14a151.71 151.71 0 0 0 28.71-11.86l5.06 5.06a22 22 0 0 0 31.11 0l31.12-31.16a22 22 0 0 0 0-31.11l-5.06-5.06a151.71 151.71 0 0 0 11.9-28.73h7.16a22 22 0 0 0 22-22v-6h80.54c21.91-29 56.32-48 95.46-48a118.68 118.68 0 0 1 51.8 12.2l50.82-50.82a32 32 0 0 0 9.38-22.62v-50.76a32 32 0 0 0 -32-32zm-432 256a80 80 0 1 1 80-80 80 80 0 0 1 -80 80zm22-256h-38v-96h106.89l41.11 96z" fill="#267f6a"/></svg>